#tb 0: 1/1200
0,          0,          0,        0,     9600, 0xc1632102
0,        100,        100,        0,     9600, 0x0f6c0521
0,        200,        200,        0,     9600, 0x04b90b5a
0,        300,        300,        0,     9600, 0x2ebd4500
0,        400,        400,        0,     9600, 0x726f46f4
0,        500,        500,        0,     9600, 0x37f6968e
0,        600,        600,        0,     9600, 0x7305872e
0,        700,        700,        0,     9600, 0x222eff5e
0,        800,        800,        0,     9600, 0x9317e227
0,        900,        900,        0,     9600, 0x421eee9d
0,       1000,       1000,        0,     9600, 0xcbcfaaff
0,       1100,       1100,        0,     9600, 0xe7d43be2
0,       1200,       1200,        0,     9600, 0x0b71e28c
0,       1300,       1300,        0,     9600, 0xd6a050ca
0,       1400,       1400,        0,     9600, 0x0ac6dbf5
0,       1500,       1500,        0,     9600, 0x5c036038
0,       1600,       1600,        0,     9600, 0x6e417ed6
0,       1700,       1700,        0,     9600, 0x8bd0dc22
0,       1800,       1800,        0,     9600, 0xdf3b0877
0,       1900,       1900,        0,     9600, 0xae6e7823
0,       2000,       2000,        0,     9600, 0x8ff0ac32
0,       2100,       2100,        0,     9600, 0xa2d9e2ce
0,       2200,       2200,        0,     9600, 0x5fd92b65
0,       2300,       2300,        0,     9600, 0x81c1c824
0,       2400,       2400,        0,     9600, 0xb8a2ace4
0,       2500,       2500,        0,     9600, 0x65b70404
0,       2600,       2600,        0,     9600, 0xc5349eb2
0,       2700,       2700,        0,     9600, 0xf60cc2b8
0,       2800,       2800,        0,     9600, 0x31474595
0,       2900,       2900,        0,     9600, 0xf602635b
0,       3000,       3000,        0,     9600, 0x873cbd87
0,       3100,       3100,        0,     9600, 0xb9793ffe
0,       3200,       3200,        0,     9600, 0x42eb2831
0,       3300,       3300,        0,     9600, 0x44cc1dab
0,       3400,       3400,        0,     9600, 0xbdcbbb87
0,       3500,       3500,        0,     9600, 0x29c22df7
0,       3600,       3600,        0,     9600, 0xde502ef5
0,       3700,       3700,        0,     9600, 0xaf311aeb
